<svg xmlns="http://www.w3.org/2000/svg" width="1024" height="1024" viewBox="0 0 1024 1024" version="1.1"><path d="M 495.500 213.417 C 486.700 218.499, 466.450 230.096, 450.500 239.189 C 434.550 248.282, 416.775 258.429, 411 261.737 C 405.225 265.046, 373.050 283.385, 339.500 302.491 C 270.724 341.657, 260.763 347.365, 254.460 351.225 L 250.009 353.950 250.232 405.975 C 250.355 434.589, 250.802 458, 251.227 458 C 251.652 458, 252 457.612, 252 457.138 C 252 456.663, 253.394 454.526, 255.098 452.388 C 256.801 450.249, 259.389 446.475, 260.848 444 L 263.500 439.500 264 400.131 L 264.500 360.761 275 354.791 C 280.775 351.508, 287.300 347.804, 289.500 346.562 C 293.234 344.453, 364.294 303.694, 372 299.241 C 389.064 289.380, 505.745 223.196, 509.796 221.079 C 511.794 220.036, 512.965 220.362, 518.796 223.587 C 531.808 230.782, 593.082 265.359, 602.500 270.821 C 609.348 274.792, 643.247 294.011, 672 310.223 C 682.725 316.270, 691.950 321.559, 692.500 321.975 C 693.050 322.392, 695.525 323.859, 698 325.235 C 700.475 326.612, 711.725 333.045, 723 339.532 C 734.275 346.018, 747.206 353.389, 751.736 355.912 L 759.972 360.500 759.986 398.782 C 759.998 430.586, 760.255 437.674, 761.505 440.667 C 762.892 443.986, 772.666 458, 773.595 458 C 773.818 458, 774 434.469, 774 405.708 L 774 353.416 747.250 338.030 C 732.538 329.568, 717.125 320.772, 713 318.483 C 708.875 316.195, 702.350 312.466, 698.500 310.197 C 694.650 307.928, 685.281 302.568, 677.681 298.286 C 670.080 294.004, 663.105 290.046, 662.181 289.491 C 661.256 288.937, 652.625 284.022, 643 278.570 C 627.044 269.532, 584.955 245.553, 570.654 237.352 C 567.439 235.508, 564.632 234, 564.418 234 C 564.203 234, 560.309 231.802, 555.764 229.116 C 544.219 222.292, 511.999 203.981, 511.726 204.089 C 511.602 204.137, 504.300 208.335, 495.500 213.417 M 502 260.878 C 473.920 270.090, 471.301 308.495, 497.902 320.954 L 503 323.342 503 376.171 L 503 429 512.076 429 L 521.151 429 520.451 376.250 L 519.751 323.500 524.379 321.649 C 561.595 306.769, 540.094 248.381, 502 260.878 M 501.500 270.957 C 482.214 279.710, 484.857 307.542, 505.546 313.556 C 528.851 320.331, 545.343 291.553, 527.552 275.155 C 520.770 268.903, 509.888 267.149, 501.500 270.957 M 507.604 278.038 C 500.632 280.125, 496.279 287.804, 498.175 294.671 C 501.660 307.292, 518.921 309.115, 524.458 297.447 C 529.624 286.561, 519.208 274.566, 507.604 278.038 M 459.397 361.250 L 459.500 387.500 463 388 C 470.988 389.141, 468.710 394.613, 457.286 401.724 C 440.374 412.250, 426.344 426.231, 416.060 442.806 L 411.286 450.500 386.643 450.767 C 373.089 450.915, 362.005 451.365, 362.011 451.767 C 362.017 452.170, 362.662 454.610, 363.445 457.189 C 364.519 460.729, 364.577 461.996, 363.684 462.360 C 363.033 462.625, 376.266 462.878, 393.091 462.921 L 423.682 463 426.363 458.075 C 437.551 437.519, 455.581 420.336, 475.286 411.450 L 481.829 408.500 482.472 400.500 C 482.826 396.100, 482.977 381.544, 482.808 368.154 L 482.500 343.808 471.544 339.404 C 465.518 336.982, 460.297 335, 459.942 335 C 459.586 335, 459.341 346.813, 459.397 361.250 M 542 397.935 L 542 407.971 548.250 411.107 C 570.123 422.082, 588.480 439.992, 597.595 459.250 L 599.370 463 629.935 462.977 L 660.500 462.955 664.750 452.683 C 667.087 447.034, 669 441.870, 669 441.206 C 669 440.296, 662.739 440, 643.500 440 L 618 440 618 444 C 618 451.015, 611.525 450.010, 606.734 442.250 C 594.949 423.166, 579.597 409.092, 558.332 397.875 C 552.924 395.023, 547.038 391.612, 545.250 390.294 L 542 387.898 542 397.935 M 501.276 444.511 C 471.971 450.879, 454.357 481.471, 463.946 509.344 C 477.895 549.887, 534.529 555.179, 555.744 517.922 C 576.826 480.897, 543.088 435.426, 501.276 444.511 M 294 461.887 C 256.916 473.916, 264.637 525.592, 303.500 525.468 C 318.849 525.419, 335 514.035, 335 503.265 C 335 502.260, 346.420 502, 390.500 502 L 446 502 446 493.250 L 446.001 484.500 393.750 484.807 C 333.269 485.163, 335.928 485.383, 333.415 479.812 C 327.384 466.437, 307.647 457.461, 294 461.887 M 710 461.935 C 701.181 464.627, 693.057 471.519, 689.402 479.409 C 688.109 482.199, 686.478 484.530, 685.776 484.588 C 685.074 484.647, 660.313 484.764, 630.750 484.848 L 577 485 577 493.500 L 577 502 631.953 502 L 686.906 502 689.001 506.750 C 700.316 532.409, 738.704 532.075, 750.247 506.217 C 761.119 481.862, 735.839 454.047, 710 461.935 M 293.380 472.415 C 278.207 479.445, 274.792 500.074, 287.090 510.422 C 298.031 519.629, 309.647 519.508, 319.803 510.082 C 338.713 492.531, 316.944 461.498, 293.380 472.415 M 709.459 472.367 C 700.668 476.460, 696 483.843, 696 493.652 C 696 518.459, 730.172 526.006, 740.646 503.512 C 749.949 483.535, 729.447 463.060, 709.459 472.367 M 298.771 480.176 C 282.050 484.718, 288.531 510.749, 305.587 507.550 C 319.106 505.013, 321.027 480.136, 307.715 479.986 C 307.047 479.979, 305.600 479.790, 304.500 479.568 C 303.400 479.345, 300.822 479.619, 298.771 480.176 M 714.741 480.418 C 709.868 482.172, 708.545 483.332, 706.495 487.653 C 700.761 499.735, 714.032 512.105, 726.115 505.941 C 741.510 498.087, 731.024 474.557, 714.741 480.418 M 353.813 526.750 C 352.672 529.362, 350.448 534.375, 348.869 537.888 C 347.291 541.402, 346 544.439, 346 544.638 C 346 544.837, 357.857 545, 372.348 545 L 398.696 545 400.500 541 C 403.474 534.406, 410.170 534.995, 414.908 542.268 C 426.506 560.071, 446.435 578.661, 462.750 586.896 L 467 589.041 467 595.861 C 467 608.641, 468.309 635.927, 468.906 635.573 C 469.233 635.379, 471.598 635.543, 474.162 635.938 L 478.824 636.656 479.384 625.578 C 481.827 577.240, 481.981 578.483, 473 573.973 C 454.343 564.604, 435.835 546.631, 425.867 528.204 L 422.511 522 389.199 522 L 355.888 522 353.813 526.750 M 598.640 524.296 C 594.934 539.065, 572.038 562.118, 549.743 573.530 L 541.986 577.500 542.243 609.417 L 542.500 641.335 553.250 646.115 L 564 650.895 564 624.555 C 564 596.260, 564.136 597, 558.918 597 C 551.889 597, 556.671 589.731, 568.767 582.028 C 584.213 572.192, 598.031 558.506, 606.425 544.726 L 612.351 535 628.425 534.901 C 642.225 534.816, 664.009 533.620, 660.250 533.155 C 659.440 533.055, 659 531.267, 659 528.083 C 659 525.086, 659.488 522.970, 660.250 522.662 C 660.938 522.385, 647.486 522.122, 630.358 522.079 L 599.217 522 598.640 524.296 M 768.085 534.981 C 759.866 545.792, 760.094 544.276, 760.044 588.509 C 760 627.120, 759.978 627.532, 757.885 628.840 C 754.621 630.878, 695.809 664.645, 684.052 671.231 C 678.306 674.450, 673.131 677.462, 672.552 677.924 C 671.973 678.387, 665.875 681.917, 659 685.769 C 652.125 689.622, 633.450 700.304, 617.500 709.508 C 601.550 718.712, 583.550 729.046, 577.500 732.473 C 571.450 735.901, 554.186 745.770, 539.136 754.404 C 514.997 768.254, 511.580 769.939, 510.136 768.705 C 509.236 767.935, 506.025 765.957, 503 764.309 C 497.222 761.162, 479.039 750.727, 458 738.485 C 451.125 734.484, 443.925 730.326, 442 729.245 C 430.873 722.994, 376.337 691.640, 375.500 691.014 C 374.950 690.602, 371.800 688.782, 368.500 686.969 C 359.438 681.991, 342.494 672.371, 321 659.999 C 317.425 657.942, 307.525 652.321, 299 647.510 C 290.475 642.698, 279.113 636.254, 273.750 633.189 L 264 627.617 263.956 588.558 C 263.922 558.429, 263.604 548.637, 262.565 545.723 C 261.340 542.291, 252.194 529.085, 251 529.025 C 250.725 529.011, 250.620 552.984, 250.767 582.299 L 251.034 635.597 258.267 639.500 C 262.245 641.646, 270.900 646.529, 277.500 650.351 C 284.100 654.173, 294 659.849, 299.500 662.964 C 305 666.080, 314.225 671.361, 320 674.701 C 325.775 678.040, 339.950 686.163, 351.500 692.753 C 363.050 699.343, 378.125 707.995, 385 711.980 C 391.875 715.965, 402.225 721.924, 408 725.222 C 413.775 728.520, 422.550 733.573, 427.500 736.449 C 432.450 739.326, 444.375 746.085, 454 751.469 C 473.573 762.418, 487.744 770.554, 502.339 779.221 L 512.177 785.064 537.839 770.194 C 551.952 762.015, 587.800 741.490, 617.500 724.582 C 647.200 707.674, 675.550 691.458, 680.500 688.546 C 690.032 682.938, 696.858 679.029, 736 656.762 C 749.475 649.096, 763.538 641.044, 767.250 638.867 L 774 634.911 774 581.455 C 774 552.055, 773.863 528, 773.696 528 C 773.529 528, 771.004 531.142, 768.085 534.981 M 502.998 609.750 L 502.995 661.500 497.485 664.379 C 466.381 680.632, 476.350 726.404, 510.980 726.345 C 547.938 726.281, 558 680.268, 524.750 663.379 L 520 660.966 520 609.483 L 520 558 511.500 558 L 503 558 502.998 609.750 M 505.700 671.497 C 496.202 673.909, 489.482 682.094, 488.385 692.587 C 486.356 712, 509.689 724.701, 525.860 712.986 C 546.551 697.998, 530.602 665.175, 505.700 671.497 M 505.049 681.798 C 492.351 688.060, 497.641 708, 512 708 C 519.268 708, 524.767 703.153, 525.742 695.887 C 527.248 684.656, 515.489 676.649, 505.049 681.798" stroke="none" fill="#38c8f1" fill-rule="evenodd"/></svg>